<svg viewBox="0 0 569.97 330.12" xmlns="http://www.w3.org/2000/svg" aria-labelledby="react-aria3603771498-16" class="css-ixm4uh e1t924c96"><g fill="#FFF"><path d="M101.41,328.25H76.62L56.44,281.38h-33v46.87H0V204.72H56.44Q80,204.72,91,215.35t11.06,27.51q0,25.06-23.46,34.51Zm-78-66.73H52.63q12.66,0,18.85-5.34c4.12-3.56,6.19-7.38,6.19-13.61,0-5.72-2-9.26-6.09-12.79s-9.75-5.29-17-5.29H23.45Z"></path><path d="M366.43,328.25H343.06V242.88h23.37Z"></path><path d="M212.59,279.21c0-14.9-3.85-27.29-11.45-36.82s-18.62-14.47-32.59-14.47c-14.27,0-25.74,4.92-34.09,14.63s-12.53,22-12.53,36.76c0,15.49,4.19,28,12.45,37.06s19.37,13.75,32.93,13.75c11.28,0,20.81-2.92,28.32-8.68,7-5.4,12.44-13.62,15.21-23.12l.36-1.22H188.55l-.25.58c-3.51,8.22-10.15,12.39-19.75,12.39-10.11,0-17.51-5.11-20.31-14a44.25,44.25,0,0,1-1.81-13.42h66ZM153.21,252a19.23,19.23,0,0,1,14.29-5.86A20,20,0,0,1,182,252.43c3.79,4,5.74,8.37,6,13.21H146.55A22.75,22.75,0,0,1,153.21,252Z"></path><polygon points="265.11 304.87 265.11 204.72 241.75 204.72 241.75 328.25 321.83 328.25 321.83 304.87 265.11 304.87"></polygon><rect x="343.06" y="204.72" width="23.37" height="23.37"></rect><polygon points="546.6 304.87 546.6 204.72 569.97 204.72 569.97 328.25 489.88 328.25 489.88 304.87 546.6 304.87"></polygon><polygon points="546.61 23.38 546.61 123.53 569.97 123.53 569.97 0 489.89 0 489.89 23.38 546.61 23.38"></polygon><polygon points="265.12 23.38 265.12 123.53 241.75 123.53 241.75 0 321.83 0 321.83 23.38 265.12 23.38"></polygon><path d="M460.68,297.1c-2.22,7.55-8.4,13-20,13-10.1,0-22.68-6.74-22.68-31.05h0c0-24.31,12.58-31,22.68-31,11.61,0,17.79,5.42,20,13h22.07c-2.8-20.83-21.55-33-43.32-33-13.56,0-24.64,4.62-32.93,13.75-7.65,8.44-12.94,18.54-12.94,37.35h0c0,18.81,5.29,28.92,12.94,37.35,8.29,9.13,19.37,13.75,32.93,13.75,21.77,0,40.52-12.19,43.32-33Z"></path></g></svg>